0
SECTION
2
HEADER
9
$INSUNITS
70
4
9
$ACADVER
1
AC1014
9
$HANDSEED
5
FFFF
0
ENDSEC
0
SECTION
2
TABLES
0
TABLE
2
VPORT
5
8
100
AcDbSymbolTable
0
ENDTAB
0
TABLE
2
LTYPE
5
5
100
AcDbSymbolTable
0
LTYPE
5
14
100
AcDbSymbolTableRecord
100
AcDbLinetypeTableRecord
2
BYBLOCK
70
0
0
LTYPE
5
15
100
AcDbSymbolTableRecord
100
AcDbLinetypeTableRecord
2
BYLAYER
70
0
0
ENDTAB
0
TABLE
2
LAYER
5
2
100
AcDbSymbolTable
70
2
0
LAYER
5
50
100
AcDbSymbolTableRecord
100
AcDbLayerTableRecord
2
0
70
0
6
CONTINUOUS
0
ENDTAB
0
TABLE
2
STYLE
5
3
100
AcDbSymbolTable
70
1
0
STYLE
5
11
100
AcDbSymbolTableRecord
100
AcDbTextStyleTableRecord
2
STANDARD
70
0
0
ENDTAB
0
TABLE
2
VIEW
5
6
100
AcDbSymbolTable
70
0
0
ENDTAB
0
TABLE
2
UCS
5
7
100
AcDbSymbolTable
70
0
0
ENDTAB
0
TABLE
2
APPID
5
9
100
AcDbSymbolTable
70
2
0
APPID
5
12
100
AcDbSymbolTableRecord
100
AcDbRegAppTableRecord
2
ACAD
70
0
0
ENDTAB
0
TABLE
2
DIMSTYLE
5
A
100
AcDbSymbolTable
70
1
0
ENDTAB
0
TABLE
2
BLOCK_RECORD
5
1
100
AcDbSymbolTable
70
1
0
BLOCK_RECORD
5
1F
100
AcDbSymbolTableRecord
100
AcDbBlockTableRecord
2
*MODEL_SPACE
0
BLOCK_RECORD
5
1B
100
AcDbSymbolTableRecord
100
AcDbBlockTableRecord
2
*PAPER_SPACE
0
ENDTAB
0
ENDSEC
0
SECTION
2
BLOCKS
0
BLOCK
5
20
100
AcDbEntity
100
AcDbBlockBegin
2
*MODEL_SPACE
0
ENDBLK
5
21
100
AcDbEntity
100
AcDbBlockEnd
0
BLOCK
5
1C
100
AcDbEntity
100
AcDbBlockBegin
2
*PAPER_SPACE
0
ENDBLK
5
1D
100
AcDbEntity
100
AcDbBlockEnd
0
ENDSEC
0
SECTION
2
ENTITIES
0
CIRCLE
5
100
100
AcDbEntity
8
0
100
AcDbCircle
10
225.00000000000017
20
-234.99999999999986
30
0
40
2.1499999999999986
210
-1.4777157076571967e-82
220
-0
230
1
0
LWPOLYLINE
5
101
100
AcDbEntity
8
0
100
AcDbPolyline
90
4
70
1
43
0.0
10
-14.999999999999535
20
-444.99999999999966
10
15.000000000000476
20
-444.99999999999966
42
0.99999999999999989
10
15.000000000000478
20
-434.99999999999966
10
-14.999999999999531
20
-434.99999999999966
42
0.99999999999999989
0
CIRCLE
5
102
100
AcDbEntity
8
0
100
AcDbCircle
10
46.060660171780313
20
-198.99999999999974
30
0
40
2.0999999999999908
210
3.0697569123921402e-89
220
0
230
1
0
CIRCLE
5
103
100
AcDbEntity
8
0
100
AcDbCircle
10
245.00000000000023
20
-234.99999999999986
30
0
40
2.1500000000000341
210
-1.4777157076570211e-82
220
4.5917748078995606e-41
230
1
0
CIRCLE
5
104
100
AcDbEntity
8
0
100
AcDbCircle
10
-89.93933982821963
20
-377.49999999999949
30
0
40
2.1000000000000085
210
3.0697569123921385e-89
220
-4.5917748078995606e-41
230
1
0
CIRCLE
5
105
100
AcDbEntity
8
0
100
AcDbCircle
10
-54.839339828219636
20
-230.14999999999984
30
0
40
2.1500000000000075
210
3.0697569123921395e-89
220
4.5917748078995606e-41
230
1
0
CIRCLE
5
106
100
AcDbEntity
8
0
100
AcDbCircle
10
122.50000000000016
20
-253.9999999999998
30
0
40
1.6000000000000014
210
3.0697569123921392e-89
220
0
230
1
0
LWPOLYLINE
5
107
100
AcDbEntity
8
0
100
AcDbPolyline
90
4
70
1
43
0.0
10
-202.93933982821969
20
-433.99999999999949
42
-0.99999999999999989
10
-202.9393398282196
20
-425.99999999999955
10
-182.9393398282196
20
-425.9999999999996
42
-0.99999999999999989
10
-182.9393398282196
20
-433.99999999999943
0
CIRCLE
5
108
100
AcDbEntity
8
0
100
AcDbCircle
10
-89.93933982821963
20
-227.4999999999996
30
0
40
2.1000000000000085
210
3.0697569123921385e-89
220
-4.5917748078995606e-41
230
1
0
CIRCLE
5
109
100
AcDbEntity
8
0
100
AcDbCircle
10
-45.839339828219714
20
-300.92499999999978
30
0
40
1.6000000000000014
210
3.0697569123921392e-89
220
0
230
1
0
CIRCLE
5
110
100
AcDbEntity
8
0
100
AcDbCircle
10
-224.93933982821969
20
-377.49999999999949
30
0
40
2.1000000000000085
210
3.0697569123921385e-89
220
-4.5917748078995606e-41
230
1
0
CIRCLE
5
111
100
AcDbEntity
8
0
100
AcDbCircle
10
122.50000000000016
20
-195.99999999999989
30
0
40
1.6000000000000014
210
3.0697569123921392e-89
220
0
230
1
0
CIRCLE
5
112
100
AcDbEntity
8
0
100
AcDbCircle
10
-182.43933982821969
20
-227.4999999999996
30
0
40
2.1499999999999986
210
3.0697569123921385e-89
220
0
230
1
0
CIRCLE
5
113
100
AcDbEntity
8
0
100
AcDbCircle
10
0.030330085890225691
20
-10.000000000000028
30
0
40
2.1499999999999986
210
-1.4777157076571967e-82
220
-0
230
1
0
CIRCLE
5
114
100
AcDbEntity
8
0
100
AcDbCircle
10
27.810660171780349
20
-352.49999999999972
30
0
40
2.2500000000000009
210
3.0697569123921399e-89
220
0
230
1
0
CIRCLE
5
115
100
AcDbEntity
8
0
100
AcDbCircle
10
-224.93933982821969
20
-234.9999999999996
30
0
40
2.1499999999999986
210
-1.4777157076571967e-82
220
-0
230
1
0
CIRCLE
5
116
100
AcDbEntity
8
0
100
AcDbCircle
10
-244.93933982821969
20
-234.9999999999996
30
0
40
2.1499999999999986
210
-1.4777157076571967e-82
220
-0
230
1
0
CIRCLE
5
117
100
AcDbEntity
8
0
100
AcDbCircle
10
171.50000000000017
20
-253.9999999999998
30
0
40
1.6000000000000014
210
3.0697569123921392e-89
220
0
230
1
0
CIRCLE
5
118
100
AcDbEntity
8
0
100
AcDbCircle
10
-182.43933982821966
20
-377.49999999999949
30
0
40
2.1499999999999986
210
3.0697569123921385e-89
220
0
230
1
0
CIRCLE
5
119
100
AcDbEntity
8
0
100
AcDbCircle
10
30.260660171780408
20
-199.07499999999993
30
0
40
1.6000000000000014
210
3.0697569123921392e-89
220
0
230
1
0
CIRCLE
5
120
100
AcDbEntity
8
0
100
AcDbCircle
10
-27.689339828219694
20
-352.49999999999966
30
0
40
2.2500000000000009
210
3.0697569123921399e-89
220
0
230
1
0
CIRCLE
5
121
100
AcDbEntity
8
0
100
AcDbCircle
10
-27.689339828219698
20
-401.49999999999966
30
0
40
2.2500000000000009
210
3.0697569123921399e-89
220
0
230
1
0
CIRCLE
5
122
100
AcDbEntity
8
0
100
AcDbCircle
10
171.50000000000017
20
-195.99999999999989
30
0
40
1.6000000000000014
210
3.0697569123921392e-89
220
0
230
1
0
CIRCLE
5
123
100
AcDbEntity
8
0
100
AcDbCircle
10
46.060660171780327
20
-313.99999999999972
30
0
40
2.0999999999999908
210
3.0697569123921402e-89
220
0
230
1
0
CIRCLE
5
124
100
AcDbEntity
8
0
100
AcDbCircle
10
4.6804830445127328e-13
20
-459.99999999999966
30
0
40
2.1500000000000252
210
-1.351054637152205e-81
220
-6.8875334846245379e-138
230
1
0
CIRCLE
5
125
100
AcDbEntity
8
0
100
AcDbCircle
10
27.810660171780345
20
-401.49999999999972
30
0
40
2.2500000000000009
210
3.0697569123921399e-89
220
0
230
1
0
CIRCLE
5
126
100
AcDbEntity
8
0
100
AcDbCircle
10
-132.43933982821966
20
-227.4999999999996
30
0
40
2.1499999999999986
210
3.0697569123921385e-89
220
0
230
1
0
CIRCLE
5
127
100
AcDbEntity
8
0
100
AcDbCircle
10
-224.93933982821969
20
-227.4999999999996
30
0
40
2.1000000000000085
210
3.0697569123921385e-89
220
-4.5917748078995606e-41
230
1
0
CIRCLE
5
128
100
AcDbEntity
8
0
100
AcDbCircle
10
0.030330085890225327
20
-30.000000000000028
30
0
40
2.1499999999999995
210
-9.0773983301415907e-82
220
-4.6275615532402552e-138
230
1
0
CIRCLE
5
129
100
AcDbEntity
8
0
100
AcDbCircle
10
-132.43933982821963
20
-377.49999999999949
30
0
40
2.1499999999999986
210
3.0697569123921385e-89
220
0
230
1
0
CIRCLE
5
130
100
AcDbEntity
8
0
100
AcDbCircle
10
-45.939339828219644
20
-313.99999999999972
30
0
40
2.0999999999999908
210
3.0697569123921402e-89
220
0
230
1
0
CIRCLE
5
131
100
AcDbEntity
8
0
100
AcDbCircle
10
-127.43933982821959
20
-432.9999999999996
30
0
40
2.1000000000000085
210
3.0697569123921385e-89
220
-4.5917748078995606e-41
230
1
0
CIRCLE
5
132
100
AcDbEntity
8
0
100
AcDbCircle
10
-45.939339828219644
20
-198.99999999999974
30
0
40
2.0999999999999996
210
3.0697569123921399e-89
220
0
230
1
0
LWPOLYLINE
5
133
100
AcDbEntity
8
0
100
AcDbPolyline
90
16
70
1
43
0.0
10
-173.89525519985594
20
-2.2371165264656288
42
-0.18166735949113685
10
-170.60273216051331
20
-1.0000000000000309
10
170.6027321605134
20
-1.0000000000000533
42
-0.18166735949113433
10
173.89525519985597
20
-2.2371165264656589
10
252.29252303934274
20
-70.834725886016471
42
-0.2162719376483693
10
254.00000000000011
20
-74.597609359550887
10
254.00000000000009
20
-395.40239064044908
42
-0.2162719376483572
10
252.29252303934265
20
-399.16527411398351
10
173.89525519985574
20
-467.76288347353392
42
-0.18166735949112997
10
170.60273216051314
20
-468.99999999999955
10
-170.60273216051337
20
-468.99999999999972
42
-0.18166735949112861
10
-173.89525519985594
20
-467.76288347353409
10
-252.23186286756234
20
-399.21835176429164
42
-0.21627193764835581
10
-253.93933982821977
20
-395.45546829075715
10
-253.93933982821974
20
-74.544531709243174
42
-0.21627193764836886
10
-252.23186286756234
20
-70.781648235708772
0
CIRCLE
5
134
100
AcDbEntity
8
0
100
AcDbCircle
10
164.60467509098763
20
-459.99999999999966
30
0
40
2.1499999999999986
210
0
220
0
230
1
0
CIRCLE
5
135
100
AcDbEntity
8
0
100
AcDbCircle
10
-164.54401491920726
20
-10.000000000000032
30
0
40
2.1499999999999986
210
0
220
0
230
1
0
CIRCLE
5
136
100
AcDbEntity
8
0
100
AcDbCircle
10
-164.54401491920726
20
-459.99999999999966
30
0
40
2.1499999999999986
210
0
220
0
230
1
0
CIRCLE
5
137
100
AcDbEntity
8
0
100
AcDbCircle
10
245.00000000000011
20
-389.65409070461391
30
0
40
2.1499999999999986
210
0
220
0
230
1
0
CIRCLE
5
138
100
AcDbEntity
8
0
100
AcDbCircle
10
-244.93933982821969
20
-80.345909295385695
30
0
40
2.1499999999999986
210
0
220
0
230
1
0
CIRCLE
5
139
100
AcDbEntity
8
0
100
AcDbCircle
10
164.6046750909878
20
-10.000000000000032
30
0
40
2.1499999999999986
210
0
220
0
230
1
0
CIRCLE
5
140
100
AcDbEntity
8
0
100
AcDbCircle
10
245.00000000000011
20
-80.345909295385823
30
0
40
2.1499999999999986
210
0
220
0
230
1
0
CIRCLE
5
141
100
AcDbEntity
8
0
100
AcDbCircle
10
-244.93933982821969
20
-389.65409070461391
30
0
40
2.1499999999999986
210
0
220
0
230
1
0
CIRCLE
5
142
100
AcDbEntity
8
0
100
AcDbCircle
10
30.260660171780277
20
-300.92499999999984
30
0
40
1.6000000000000014
210
0
220
-0
230
1
0
ENDSEC
0
SECTION
2
OBJECTS
0
DICTIONARY
5
C
100
AcDbDictionary
3
ACAD_GROUP
350
D
3
ACAD_MLINESTYLE
350
17
0
DICTIONARY
5
D
100
AcDbDictionary
0
DICTIONARY
5
1A
330
C
100
AcDbDictionary
0
DICTIONARY
5
17
100
AcDbDictionary
0
ENDSEC
0
EOF
