0
SECTION
2
HEADER
9
$INSUNITS
70
4
9
$ACADVER
1
AC1014
9
$HANDSEED
5
FFFF
0
ENDSEC
0
SECTION
2
TABLES
0
TABLE
2
VPORT
5
8
100
AcDbSymbolTable
0
ENDTAB
0
TABLE
2
LTYPE
5
5
100
AcDbSymbolTable
0
LTYPE
5
14
100
AcDbSymbolTableRecord
100
AcDbLinetypeTableRecord
2
BYBLOCK
70
0
0
LTYPE
5
15
100
AcDbSymbolTableRecord
100
AcDbLinetypeTableRecord
2
BYLAYER
70
0
0
ENDTAB
0
TABLE
2
LAYER
5
2
100
AcDbSymbolTable
70
2
0
LAYER
5
50
100
AcDbSymbolTableRecord
100
AcDbLayerTableRecord
2
0
70
0
6
CONTINUOUS
0
ENDTAB
0
TABLE
2
STYLE
5
3
100
AcDbSymbolTable
70
1
0
STYLE
5
11
100
AcDbSymbolTableRecord
100
AcDbTextStyleTableRecord
2
STANDARD
70
0
0
ENDTAB
0
TABLE
2
VIEW
5
6
100
AcDbSymbolTable
70
0
0
ENDTAB
0
TABLE
2
UCS
5
7
100
AcDbSymbolTable
70
0
0
ENDTAB
0
TABLE
2
APPID
5
9
100
AcDbSymbolTable
70
2
0
APPID
5
12
100
AcDbSymbolTableRecord
100
AcDbRegAppTableRecord
2
ACAD
70
0
0
ENDTAB
0
TABLE
2
DIMSTYLE
5
A
100
AcDbSymbolTable
70
1
0
ENDTAB
0
TABLE
2
BLOCK_RECORD
5
1
100
AcDbSymbolTable
70
1
0
BLOCK_RECORD
5
1F
100
AcDbSymbolTableRecord
100
AcDbBlockTableRecord
2
*MODEL_SPACE
0
BLOCK_RECORD
5
1B
100
AcDbSymbolTableRecord
100
AcDbBlockTableRecord
2
*PAPER_SPACE
0
ENDTAB
0
ENDSEC
0
SECTION
2
BLOCKS
0
BLOCK
5
20
100
AcDbEntity
100
AcDbBlockBegin
2
*MODEL_SPACE
0
ENDBLK
5
21
100
AcDbEntity
100
AcDbBlockEnd
0
BLOCK
5
1C
100
AcDbEntity
100
AcDbBlockBegin
2
*PAPER_SPACE
0
ENDBLK
5
1D
100
AcDbEntity
100
AcDbBlockEnd
0
ENDSEC
0
SECTION
2
ENTITIES
0
CIRCLE
5
100
100
AcDbEntity
8
0
100
AcDbCircle
10
132.43933982821966
20
227.49999999999994
30
0
40
2.1499999999999986
210
-2.4073165047073805e-131
220
1.2440143038521882e-212
230
1
0
CIRCLE
5
101
100
AcDbEntity
8
0
100
AcDbCircle
10
89.939339828219602
20
377.49999999999989
30
0
40
2.1000000000000085
210
-2.4073165047073805e-131
220
1.2440143038521882e-212
230
1
0
CIRCLE
5
102
100
AcDbEntity
8
0
100
AcDbCircle
10
45.939339828219616
20
199.00000000000006
30
0
40
2.0999999999999996
210
-2.4073165047073805e-131
220
1.2440143038521882e-212
230
1
0
CIRCLE
5
103
100
AcDbEntity
8
0
100
AcDbCircle
10
27.689339828219666
20
401.5
30
0
40
2.2500000000000009
210
-1.3684555315672042e-48
220
7.0716843926685199e-130
230
1
0
CIRCLE
5
104
100
AcDbEntity
8
0
100
AcDbCircle
10
-27.810660171780377
20
401.50000000000006
30
0
40
2.2500000000000009
210
-1.3684555315672042e-48
220
7.0716843926685199e-130
230
1
0
CIRCLE
5
105
100
AcDbEntity
8
0
100
AcDbCircle
10
-30.260660171780437
20
199.07500000000024
30
0
40
1.6000000000000014
210
-2.4073165047073805e-131
220
1.2440143038521882e-212
230
1
0
CIRCLE
5
106
100
AcDbEntity
8
0
100
AcDbCircle
10
45.839339828219678
20
300.92500000000018
30
0
40
1.6000000000000014
210
-2.4073165047073805e-131
220
1.2440143038521882e-212
230
1
0
CIRCLE
5
107
100
AcDbEntity
8
0
100
AcDbCircle
10
224.93933982821966
20
377.49999999999989
30
0
40
2.1000000000000085
210
-2.4073165047073805e-131
220
1.2440143038521882e-212
230
1
0
CIRCLE
5
108
100
AcDbEntity
8
0
100
AcDbCircle
10
182.43933982821966
20
227.49999999999994
30
0
40
2.1499999999999986
210
-2.4073165047073805e-131
220
1.2440143038521882e-212
230
1
0
CIRCLE
5
109
100
AcDbEntity
8
0
100
AcDbCircle
10
132.4393398282196
20
377.49999999999989
30
0
40
2.1499999999999986
210
-2.4073165047073805e-131
220
1.2440143038521882e-212
230
1
0
CIRCLE
5
110
100
AcDbEntity
8
0
100
AcDbCircle
10
127.43933982821957
20
433
30
0
40
2.1000000000000085
210
-2.4073165047073805e-131
220
1.2440143038521882e-212
230
1
0
CIRCLE
5
111
100
AcDbEntity
8
0
100
AcDbCircle
10
89.939339828219602
20
227.49999999999994
30
0
40
2.1000000000000085
210
-2.4073165047073805e-131
220
1.2440143038521882e-212
230
1
0
CIRCLE
5
112
100
AcDbEntity
8
0
100
AcDbCircle
10
-46.060660171780363
20
314.00000000000006
30
0
40
2.0999999999999908
210
-1.3684555315672042e-48
220
-9.4955677457597987e-66
230
1
0
CIRCLE
5
113
100
AcDbEntity
8
0
100
AcDbCircle
10
27.689339828219666
20
352.5
30
0
40
2.2500000000000009
210
-1.3684555315672042e-48
220
7.0716843926685199e-130
230
1
0
CIRCLE
5
114
100
AcDbEntity
8
0
100
AcDbCircle
10
-27.810660171780377
20
352.50000000000006
30
0
40
2.2500000000000009
210
-1.3684555315672042e-48
220
7.0716843926685199e-130
230
1
0
CIRCLE
5
115
100
AcDbEntity
8
0
100
AcDbCircle
10
45.939339828219602
20
314.00000000000006
30
0
40
2.0999999999999908
210
-1.3684555315672042e-48
220
-9.4955677457597987e-66
230
1
0
CIRCLE
5
116
100
AcDbEntity
8
0
100
AcDbCircle
10
-46.060660171780341
20
199.00000000000006
30
0
40
2.0999999999999908
210
-1.3684555315672042e-48
220
-9.4955677457597987e-66
230
1
0
CIRCLE
5
117
100
AcDbEntity
8
0
100
AcDbCircle
10
224.93933982821966
20
227.49999999999994
30
0
40
2.1000000000000085
210
-2.4073165047073805e-131
220
1.2440143038521882e-212
230
1
0
LWPOLYLINE
5
118
100
AcDbEntity
8
0
100
AcDbPolyline
90
4
70
1
43
0.0
10
202.93933982821957
20
434.00000000000034
10
182.93933982821957
20
433.99999999999977
42
0.99999999999999989
10
182.93933982821957
20
426.00000000000023
10
202.93933982821957
20
425.99999999999966
42
0.99999999999999989
0
CIRCLE
5
119
100
AcDbEntity
8
0
100
AcDbCircle
10
182.4393398282196
20
377.49999999999989
30
0
40
2.1499999999999986
210
-2.4073165047073805e-131
220
1.2440143038521882e-212
230
1
0
LWPOLYLINE
5
120
100
AcDbEntity
8
0
100
AcDbPolyline
90
24
70
1
43
0.0
10
230.93933982821966
20
468.99999999999977
42
-0.41421356237309853
10
233.93933982821966
20
465.99999999999977
10
233.93933982821963
20
450.99999999999977
42
0.41421356237309509
10
235.93933982821963
20
448.99999999999977
10
250.93933982821972
20
448.99999999999977
42
-0.41421356237309853
10
253.93933982821972
20
445.99999999999977
10
253.93933982821974
20
24.000000000000057
42
-0.4142135623730907
10
250.93933982821972
20
21.000000000000032
10
235.93933982821972
20
21.000000000000032
42
0.41421356237309537
10
233.93933982821974
20
19.000000000000028
10
233.93933982821972
20
4.0000000000000311
42
-0.41421356237308582
10
230.93933982821977
20
1.0000000000000318
10
-231.00000000000026
20
1.0000000000000253
42
-0.41421356237308443
10
-234.00000000000023
20
4.0000000000000302
10
-234.00000000000023
20
19.000000000000028
42
0.41421356237309509
10
-236.00000000000023
20
21.000000000000032
10
-251.0000000000002
20
21.000000000000036
42
-0.41421356237309637
10
-254.0000000000002
20
23.999999999999986
10
-254.00000000000017
20
445.99999999999977
42
-0.41421356237309853
10
-251.00000000000017
20
448.99999999999977
10
-235.99999999999989
20
448.99999999999977
42
0.41421356237309509
10
-233.99999999999989
20
450.99999999999977
10
-233.99999999999994
20
465.99999999999966
42
-0.41421356237309853
10
-230.99999999999989
20
468.99999999999972
0
CIRCLE
5
121
100
AcDbEntity
8
0
100
AcDbCircle
10
204.93933982821966
20
460
30
0
40
2.1499999999999986
210
1.9562792926673576e-67
220
9.4955677457597987e-66
230
1
0
CIRCLE
5
122
100
AcDbEntity
8
0
100
AcDbCircle
10
244.93933982821966
20
420
30
0
40
2.1499999999999986
210
1.9562792926673576e-67
220
9.4955677457597987e-66
230
1
0
CIRCLE
5
123
100
AcDbEntity
8
0
100
AcDbCircle
10
244.93933982821966
20
30.000000000000028
30
0
40
2.1499999999999986
210
1.9562792926673576e-67
220
9.4955677457597987e-66
230
1
0
CIRCLE
5
124
100
AcDbEntity
8
0
100
AcDbCircle
10
224.93933982821966
20
10.000000000000032
30
0
40
2.1499999999999986
210
1.9562792926673576e-67
220
9.4955677457597987e-66
230
1
0
CIRCLE
5
125
100
AcDbEntity
8
0
100
AcDbCircle
10
224.93933982821966
20
460
30
0
40
2.1499999999999986
210
1.9562792926673576e-67
220
9.4955677457597987e-66
230
1
0
CIRCLE
5
126
100
AcDbEntity
8
0
100
AcDbCircle
10
-205.00000000000034
20
460
30
0
40
2.1499999999999986
210
1.9562792926673576e-67
220
9.4955677457597987e-66
230
1
0
CIRCLE
5
127
100
AcDbEntity
8
0
100
AcDbCircle
10
-245.00000000000006
20
29.999999999999922
30
0
40
2.1499999999999986
210
1.9562792926673576e-67
220
9.4955677457597987e-66
230
1
0
CIRCLE
5
128
100
AcDbEntity
8
0
100
AcDbCircle
10
-245.00000000000034
20
440
30
0
40
2.1499999999999986
210
1.9562792926673576e-67
220
9.4955677457597987e-66
230
1
0
CIRCLE
5
129
100
AcDbEntity
8
0
100
AcDbCircle
10
244.93933982821966
20
50.000000000000036
30
0
40
2.1499999999999986
210
1.9562792926673576e-67
220
9.4955677457597987e-66
230
1
0
CIRCLE
5
130
100
AcDbEntity
8
0
100
AcDbCircle
10
-225.00000000000034
20
440
30
0
40
2.1499999999999986
210
1.9562792926673576e-67
220
9.4955677457597987e-66
230
1
0
CIRCLE
5
131
100
AcDbEntity
8
0
100
AcDbCircle
10
224.93933982821966
20
440
30
0
40
2.1499999999999986
210
1.9562792926673576e-67
220
9.4955677457597987e-66
230
1
0
CIRCLE
5
132
100
AcDbEntity
8
0
100
AcDbCircle
10
-205.00000000000006
20
9.9999999999999325
30
0
40
2.1499999999999986
210
1.9562792926673576e-67
220
9.4955677457597987e-66
230
1
0
CIRCLE
5
133
100
AcDbEntity
8
0
100
AcDbCircle
10
-0.030330085890248881
20
30.000000000000036
30
0
40
2.1499999999999995
210
-1.3684555315672045e-48
220
-5.7467265789954707e-66
230
1
0
LWPOLYLINE
5
134
100
AcDbEntity
8
0
100
AcDbPolyline
90
4
70
1
43
0.0
10
-15.000000000000744
20
434.99999999999943
42
-0.99999999999999989
10
-15.000000000000899
20
445.00000000000057
10
14.999999999999748
20
444.99999999999943
42
-0.99999999999999989
10
14.999999999999897
20
435.00000000000057
0
CIRCLE
5
135
100
AcDbEntity
8
0
100
AcDbCircle
10
244.93933982821966
20
440
30
0
40
2.1499999999999986
210
1.9562792926673576e-67
220
9.4955677457597987e-66
230
1
0
CIRCLE
5
136
100
AcDbEntity
8
0
100
AcDbCircle
10
-225.00000000000023
20
235
30
0
40
2.1499999999999986
210
1.9562792926673576e-67
220
9.4955677457597987e-66
230
1
0
CIRCLE
5
137
100
AcDbEntity
8
0
100
AcDbCircle
10
-245.00000000000006
20
49.999999999999915
30
0
40
2.1499999999999986
210
1.9562792926673576e-67
220
9.4955677457597987e-66
230
1
0
CIRCLE
5
138
100
AcDbEntity
8
0
100
AcDbCircle
10
204.93933982821966
20
10.000000000000032
30
0
40
2.1499999999999986
210
1.9562792926673576e-67
220
9.4955677457597987e-66
230
1
0
CIRCLE
5
139
100
AcDbEntity
8
0
100
AcDbCircle
10
-225.00000000000006
20
9.9999999999999236
30
0
40
2.1499999999999986
210
1.9562792926673576e-67
220
9.4955677457597987e-66
230
1
0
CIRCLE
5
140
100
AcDbEntity
8
0
100
AcDbCircle
10
-245.00000000000034
20
420
30
0
40
2.1499999999999986
210
1.9562792926673576e-67
220
9.4955677457597987e-66
230
1
0
CIRCLE
5
141
100
AcDbEntity
8
0
100
AcDbCircle
10
224.93933982821966
20
235
30
0
40
2.1499999999999986
210
1.9562792926673576e-67
220
9.4955677457597987e-66
230
1
0
CIRCLE
5
142
100
AcDbEntity
8
0
100
AcDbCircle
10
-225.00000000000034
20
460
30
0
40
2.1499999999999986
210
1.9562792926673576e-67
220
9.4955677457597987e-66
230
1
0
CIRCLE
5
143
100
AcDbEntity
8
0
100
AcDbCircle
10
244.93933982821966
20
235
30
0
40
2.1499999999999986
210
1.9562792926673576e-67
220
9.4955677457597987e-66
230
1
0
CIRCLE
5
144
100
AcDbEntity
8
0
100
AcDbCircle
10
-0.030330085890248881
20
10.000000000000032
30
0
40
2.1499999999999986
210
1.9562792926673576e-67
220
9.4955677457597987e-66
230
1
0
CIRCLE
5
145
100
AcDbEntity
8
0
100
AcDbCircle
10
-4.9960036108132044e-13
20
460
30
0
40
2.1500000000000252
210
1.3684555315672042e-48
220
1.5242294324755266e-65
230
1
0
CIRCLE
5
146
100
AcDbEntity
8
0
100
AcDbCircle
10
-245.00000000000026
20
235
30
0
40
2.1500000000000341
210
1.9562792926673593e-67
220
8.2152484664481565e-85
230
1
0
LWPOLYLINE
5
147
100
AcDbEntity
8
0
100
AcDbPolyline
90
4
70
1
43
0.0
10
223.58933982821964
20
34.850000000000023
42
-0.99999999999999989
10
223.58933982821964
20
27.850000000000023
10
213.58933982821964
20
27.850000000000023
42
-0.99999999999999989
10
213.58933982821964
20
34.850000000000023
0
LWPOLYLINE
5
148
100
AcDbEntity
8
0
100
AcDbPolyline
90
4
70
1
43
0.0
10
-223.65000000000009
20
27.849999999999909
42
-0.99999999999999989
10
-223.65000000000009
20
34.849999999999909
10
-213.65000000000009
20
34.849999999999909
42
-0.99999999999999989
10
-213.65000000000009
20
27.849999999999909
0
CIRCLE
5
149
100
AcDbEntity
8
0
100
AcDbCircle
10
54.839339828219607
20
230.15000000000043
30
0
40
2.1500000000000075
210
-1.3684555315672042e-48
220
7.0716843926685199e-130
230
1
0
CIRCLE
5
150
100
AcDbEntity
8
0
100
AcDbCircle
10
-122.5000000000024
20
254.00000000000034
30
0
40
1.6000000000000014
210
-2.4073165047073805e-131
220
1.2440143038521882e-212
230
1
0
CIRCLE
5
151
100
AcDbEntity
8
0
100
AcDbCircle
10
-171.50000000000023
20
254.00000000000034
30
0
40
1.6000000000000014
210
-2.4073165047073805e-131
220
1.2440143038521882e-212
230
1
0
CIRCLE
5
152
100
AcDbEntity
8
0
100
AcDbCircle
10
-122.5000000000024
20
196.00000000000023
30
0
40
1.6000000000000014
210
-2.4073165047073805e-131
220
1.2440143038521882e-212
230
1
0
CIRCLE
5
153
100
AcDbEntity
8
0
100
AcDbCircle
10
-171.50000000000023
20
196.00000000000023
30
0
40
1.6000000000000014
210
-2.4073165047073805e-131
220
1.2440143038521882e-212
230
1
0
CIRCLE
5
154
100
AcDbEntity
8
0
100
AcDbCircle
10
-30.260660171780319
20
300.92500000000024
30
0
40
1.6000000000000014
210
1.1093055037993187e-32
220
4.6584454341813647e-50
230
1
0
CIRCLE
5
155
100
AcDbEntity
8
0
100
AcDbCircle
10
-30.260660171780319
20
300.92500000000024
30
0
40
1.6000000000000014
210
1.1093055037993187e-32
220
4.6584454341813647e-50
230
1
0
ENDSEC
0
SECTION
2
OBJECTS
0
DICTIONARY
5
C
100
AcDbDictionary
3
ACAD_GROUP
350
D
3
ACAD_MLINESTYLE
350
17
0
DICTIONARY
5
D
100
AcDbDictionary
0
DICTIONARY
5
1A
330
C
100
AcDbDictionary
0
DICTIONARY
5
17
100
AcDbDictionary
0
ENDSEC
0
EOF
