0
SECTION
2
HEADER
9
$INSUNITS
70
4
9
$ACADVER
1
AC1014
9
$HANDSEED
5
FFFF
0
ENDSEC
0
SECTION
2
TABLES
0
TABLE
2
VPORT
5
8
100
AcDbSymbolTable
0
ENDTAB
0
TABLE
2
LTYPE
5
5
100
AcDbSymbolTable
0
LTYPE
5
14
100
AcDbSymbolTableRecord
100
AcDbLinetypeTableRecord
2
BYBLOCK
70
0
0
LTYPE
5
15
100
AcDbSymbolTableRecord
100
AcDbLinetypeTableRecord
2
BYLAYER
70
0
0
ENDTAB
0
TABLE
2
LAYER
5
2
100
AcDbSymbolTable
70
2
0
LAYER
5
50
100
AcDbSymbolTableRecord
100
AcDbLayerTableRecord
2
0
70
0
6
CONTINUOUS
0
ENDTAB
0
TABLE
2
STYLE
5
3
100
AcDbSymbolTable
70
1
0
STYLE
5
11
100
AcDbSymbolTableRecord
100
AcDbTextStyleTableRecord
2
STANDARD
70
0
0
ENDTAB
0
TABLE
2
VIEW
5
6
100
AcDbSymbolTable
70
0
0
ENDTAB
0
TABLE
2
UCS
5
7
100
AcDbSymbolTable
70
0
0
ENDTAB
0
TABLE
2
APPID
5
9
100
AcDbSymbolTable
70
2
0
APPID
5
12
100
AcDbSymbolTableRecord
100
AcDbRegAppTableRecord
2
ACAD
70
0
0
ENDTAB
0
TABLE
2
DIMSTYLE
5
A
100
AcDbSymbolTable
70
1
0
ENDTAB
0
TABLE
2
BLOCK_RECORD
5
1
100
AcDbSymbolTable
70
1
0
BLOCK_RECORD
5
1F
100
AcDbSymbolTableRecord
100
AcDbBlockTableRecord
2
*MODEL_SPACE
0
BLOCK_RECORD
5
1B
100
AcDbSymbolTableRecord
100
AcDbBlockTableRecord
2
*PAPER_SPACE
0
ENDTAB
0
ENDSEC
0
SECTION
2
BLOCKS
0
BLOCK
5
20
100
AcDbEntity
100
AcDbBlockBegin
2
*MODEL_SPACE
0
ENDBLK
5
21
100
AcDbEntity
100
AcDbBlockEnd
0
BLOCK
5
1C
100
AcDbEntity
100
AcDbBlockBegin
2
*PAPER_SPACE
0
ENDBLK
5
1D
100
AcDbEntity
100
AcDbBlockEnd
0
ENDSEC
0
SECTION
2
ENTITIES
0
CIRCLE
5
100
100
AcDbEntity
8
0
100
AcDbCircle
10
79.999999999998863
20
5.0000000000155627
30
0
40
1.7500000000000071
210
0
220
0
230
1
0
CIRCLE
5
101
100
AcDbEntity
8
0
100
AcDbCircle
10
-180.00000000000114
20
5.0000000000155627
30
0
40
1.7500000000000071
210
0
220
0
230
1
0
CIRCLE
5
102
100
AcDbEntity
8
0
100
AcDbCircle
10
-1.1368683772161603e-12
20
5.0000000000155627
30
0
40
1.7500000000000004
210
0
220
0
230
1
0
CIRCLE
5
103
100
AcDbEntity
8
0
100
AcDbCircle
10
159.99999999999886
20
5.0000000000155627
30
0
40
1.7500000000000071
210
0
220
0
230
1
0
CIRCLE
5
104
100
AcDbEntity
8
0
100
AcDbCircle
10
-160.00000000000114
20
5.0000000000155627
30
0
40
1.7500000000000071
210
0
220
0
230
1
0
CIRCLE
5
105
100
AcDbEntity
8
0
100
AcDbCircle
10
-80.000000000001137
20
5.0000000000155627
30
0
40
1.749999999999998
210
0
220
0
230
1
0
CIRCLE
5
106
100
AcDbEntity
8
0
100
AcDbCircle
10
179.99999999999886
20
5.0000000000155627
30
0
40
1.7500000000000071
210
0
220
0
230
1
0
LWPOLYLINE
5
107
100
AcDbEntity
8
0
100
AcDbPolyline
90
28
70
1
43
0.0
10
-197.40562250355509
20
-11.317941035743607
42
0.46075715489564673
10
-196.24999999999955
20
-10.33012443516078
10
-196.24999999999937
20
-6.4999999999907754
10
-196.20000000000249
20
-6.4999999999908766
42
-0.017685672502940893
10
-192.99789171189488
20
-4.999999999984448
10
192.99789171187481
20
-4.9999999999844089
42
-0.017685672503048505
10
196.20000000000189
20
-6.5000000000000036
10
196.25000000000193
20
-6.5000000000000036
10
196.25000000000188
20
-10.330124435169841
42
0.46075715489566682
10
197.4056225035574
20
-11.317941035752703
10
239.31124500711297
20
-4.7160496692707738
42
0.369152972002944
10
241.00000000000193
20
-2.7404164681050123
10
241.00000000000193
20
12.740416468105021
42
0.36915297200296032
10
239.31124500711292
20
14.716049669270797
10
197.40562250355734
20
21.31794103575271
42
0.46075715489566937
10
196.25000000000176
20
20.330124435169839
10
196.25000000000185
20
16.499999999999993
10
196.20000000000186
20
16.499999999999979
42
-0.017685672502652145
10
192.99789171194766
20
15.000000000015516
10
-192.99789171192768
20
15.000000000015557
42
-0.017685672502759424
10
-196.20000000000124
20
16.500000000009134
10
-196.24999999999824
20
16.500000000009223
10
-196.24999999999804
20
20.330124435178888
42
0.46075715489567476
10
-197.4056225035535
20
21.31794103576182
10
-239.31124500711229
20
14.716049669281793
42
0.36915297200296715
10
-241.00000000000136
20
12.740416468116107
10
-241.00000000000207
20
-2.7404164680938736
42
0.3691529720029581
10
-239.3112450071132
20
-4.7160496692597249
0
CIRCLE
5
108
100
AcDbEntity
8
0
100
AcDbCircle
10
223.00000000000193
20
0
30
0
40
1.6000000000000014
210
0
220
0
230
1
0
CIRCLE
5
109
100
AcDbEntity
8
0
100
AcDbCircle
10
-223.00000000000193
20
1.028510610012745e-11
30
0
40
1.6000000000000014
210
0
220
0
230
1
0
CIRCLE
5
110
100
AcDbEntity
8
0
100
AcDbCircle
10
-223.00000000000151
20
10.000000000010285
30
0
40
1.6000000000000014
210
0
220
0
230
1
0
CIRCLE
5
111
100
AcDbEntity
8
0
100
AcDbCircle
10
211.25000000000335
20
11.49999999999995
30
0
40
2.1499999999999986
210
0
220
0
230
1
0
CIRCLE
5
112
100
AcDbEntity
8
0
100
AcDbCircle
10
-211.25000000000108
20
-1.4999999999903046
30
0
40
2.1499999999999986
210
0
220
0
230
1
0
CIRCLE
5
113
100
AcDbEntity
8
0
100
AcDbCircle
10
-238.00000000000193
20
1.0977885267493548e-11
30
0
40
1.6000000000000014
210
0
220
0
230
1
0
CIRCLE
5
114
100
AcDbEntity
8
0
100
AcDbCircle
10
-211.25000000000142
20
11.500000000009702
30
0
40
2.1499999999999986
210
0
220
0
230
1
0
CIRCLE
5
115
100
AcDbEntity
8
0
100
AcDbCircle
10
-238.00000000000151
20
10.000000000010978
30
0
40
1.6000000000000014
210
0
220
0
230
1
0
CIRCLE
5
116
100
AcDbEntity
8
0
100
AcDbCircle
10
211.25000000000335
20
-1.5000000000000568
30
0
40
2.1499999999999986
210
0
220
0
230
1
0
CIRCLE
5
117
100
AcDbEntity
8
0
100
AcDbCircle
10
223.00000000000193
20
10
30
0
40
1.6000000000000014
210
0
220
0
230
1
0
CIRCLE
5
118
100
AcDbEntity
8
0
100
AcDbCircle
10
238.00000000000193
20
0
30
0
40
1.6000000000000014
210
0
220
0
230
1
0
CIRCLE
5
119
100
AcDbEntity
8
0
100
AcDbCircle
10
238.00000000000193
20
10
30
0
40
1.6000000000000014
210
0
220
0
230
1
0
CIRCLE
5
120
100
AcDbEntity
8
0
100
AcDbCircle
10
-180.00000000000114
20
5.0000000000155627
30
0
40
1.7500000000000004
210
0
220
-0
230
1
0
CIRCLE
5
121
100
AcDbEntity
8
0
100
AcDbCircle
10
-160.00000000000114
20
5.0000000000155627
30
0
40
1.7500000000000004
210
0
220
-0
230
1
0
CIRCLE
5
122
100
AcDbEntity
8
0
100
AcDbCircle
10
-140.00000000000114
20
5.0000000000155627
30
0
40
1.7500000000000004
210
0
220
-0
230
1
0
CIRCLE
5
123
100
AcDbEntity
8
0
100
AcDbCircle
10
-120.00000000000114
20
5.0000000000155627
30
0
40
1.7500000000000004
210
0
220
-0
230
1
0
CIRCLE
5
124
100
AcDbEntity
8
0
100
AcDbCircle
10
-100.00000000000114
20
5.0000000000155627
30
0
40
1.7500000000000004
210
0
220
-0
230
1
0
CIRCLE
5
125
100
AcDbEntity
8
0
100
AcDbCircle
10
-80.000000000001137
20
5.0000000000155627
30
0
40
1.7500000000000004
210
0
220
-0
230
1
0
CIRCLE
5
126
100
AcDbEntity
8
0
100
AcDbCircle
10
-60.000000000001137
20
5.0000000000155627
30
0
40
1.7500000000000004
210
0
220
-0
230
1
0
CIRCLE
5
127
100
AcDbEntity
8
0
100
AcDbCircle
10
-40.000000000001137
20
5.0000000000155627
30
0
40
1.7500000000000004
210
0
220
-0
230
1
0
CIRCLE
5
128
100
AcDbEntity
8
0
100
AcDbCircle
10
-20.000000000001137
20
5.0000000000155627
30
0
40
1.7500000000000004
210
0
220
-0
230
1
0
CIRCLE
5
129
100
AcDbEntity
8
0
100
AcDbCircle
10
19.999999999998863
20
5.0000000000155627
30
0
40
1.7500000000000004
210
0
220
-0
230
1
0
CIRCLE
5
130
100
AcDbEntity
8
0
100
AcDbCircle
10
39.999999999998863
20
5.0000000000155627
30
0
40
1.7500000000000004
210
0
220
-0
230
1
0
CIRCLE
5
131
100
AcDbEntity
8
0
100
AcDbCircle
10
59.999999999998863
20
5.0000000000155627
30
0
40
1.7500000000000004
210
0
220
-0
230
1
0
CIRCLE
5
132
100
AcDbEntity
8
0
100
AcDbCircle
10
79.999999999998863
20
5.0000000000155627
30
0
40
1.7500000000000004
210
0
220
-0
230
1
0
CIRCLE
5
133
100
AcDbEntity
8
0
100
AcDbCircle
10
99.999999999998863
20
5.0000000000155627
30
0
40
1.7500000000000004
210
0
220
-0
230
1
0
CIRCLE
5
134
100
AcDbEntity
8
0
100
AcDbCircle
10
119.99999999999886
20
5.0000000000155627
30
0
40
1.7500000000000004
210
0
220
-0
230
1
0
CIRCLE
5
135
100
AcDbEntity
8
0
100
AcDbCircle
10
139.99999999999886
20
5.0000000000155627
30
0
40
1.7500000000000004
210
0
220
-0
230
1
0
CIRCLE
5
136
100
AcDbEntity
8
0
100
AcDbCircle
10
159.99999999999886
20
5.0000000000155627
30
0
40
1.7500000000000004
210
0
220
-0
230
1
0
CIRCLE
5
137
100
AcDbEntity
8
0
100
AcDbCircle
10
179.99999999999886
20
5.0000000000155627
30
0
40
1.7500000000000004
210
0
220
-0
230
1
0
CIRCLE
5
138
100
AcDbEntity
8
0
100
AcDbCircle
10
-1.1368683772161603e-12
20
5.0000000000155627
30
0
40
1.7500000000000004
210
0
220
-0
230
1
0
ENDSEC
0
SECTION
2
OBJECTS
0
DICTIONARY
5
C
100
AcDbDictionary
3
ACAD_GROUP
350
D
3
ACAD_MLINESTYLE
350
17
0
DICTIONARY
5
D
100
AcDbDictionary
0
DICTIONARY
5
1A
330
C
100
AcDbDictionary
0
DICTIONARY
5
17
100
AcDbDictionary
0
ENDSEC
0
EOF
