0
SECTION
2
HEADER
9
$INSUNITS
70
4
9
$ACADVER
1
AC1014
9
$HANDSEED
5
FFFF
0
ENDSEC
0
SECTION
2
TABLES
0
TABLE
2
VPORT
5
8
100
AcDbSymbolTable
0
ENDTAB
0
TABLE
2
LTYPE
5
5
100
AcDbSymbolTable
0
LTYPE
5
14
100
AcDbSymbolTableRecord
100
AcDbLinetypeTableRecord
2
BYBLOCK
70
0
0
LTYPE
5
15
100
AcDbSymbolTableRecord
100
AcDbLinetypeTableRecord
2
BYLAYER
70
0
0
ENDTAB
0
TABLE
2
LAYER
5
2
100
AcDbSymbolTable
70
2
0
LAYER
5
50
100
AcDbSymbolTableRecord
100
AcDbLayerTableRecord
2
0
70
0
6
CONTINUOUS
0
ENDTAB
0
TABLE
2
STYLE
5
3
100
AcDbSymbolTable
70
1
0
STYLE
5
11
100
AcDbSymbolTableRecord
100
AcDbTextStyleTableRecord
2
STANDARD
70
0
0
ENDTAB
0
TABLE
2
VIEW
5
6
100
AcDbSymbolTable
70
0
0
ENDTAB
0
TABLE
2
UCS
5
7
100
AcDbSymbolTable
70
0
0
ENDTAB
0
TABLE
2
APPID
5
9
100
AcDbSymbolTable
70
2
0
APPID
5
12
100
AcDbSymbolTableRecord
100
AcDbRegAppTableRecord
2
ACAD
70
0
0
ENDTAB
0
TABLE
2
DIMSTYLE
5
A
100
AcDbSymbolTable
70
1
0
ENDTAB
0
TABLE
2
BLOCK_RECORD
5
1
100
AcDbSymbolTable
70
1
0
BLOCK_RECORD
5
1F
100
AcDbSymbolTableRecord
100
AcDbBlockTableRecord
2
*MODEL_SPACE
0
BLOCK_RECORD
5
1B
100
AcDbSymbolTableRecord
100
AcDbBlockTableRecord
2
*PAPER_SPACE
0
ENDTAB
0
ENDSEC
0
SECTION
2
BLOCKS
0
BLOCK
5
20
100
AcDbEntity
100
AcDbBlockBegin
2
*MODEL_SPACE
0
ENDBLK
5
21
100
AcDbEntity
100
AcDbBlockEnd
0
BLOCK
5
1C
100
AcDbEntity
100
AcDbBlockBegin
2
*PAPER_SPACE
0
ENDBLK
5
1D
100
AcDbEntity
100
AcDbBlockEnd
0
ENDSEC
0
SECTION
2
ENTITIES
0
LWPOLYLINE
5
100
100
AcDbEntity
8
0
100
AcDbPolyline
90
28
70
1
43
0.0
10
181.34314575051508
20
-468.99999999998943
42
0.19891236737961507
10
183.46446609407477
20
-468.12132034354897
10
253.12132034355957
20
-398.46446609406399
42
0.1989123673796663
10
253.99999999999994
20
-396.34314575050433
10
253.99999999999994
20
-59.999999999986997
42
0.41421356237309936
10
250.99999999999997
20
-56.999999999987018
10
237.13847425824073
20
-56.999999999986997
42
-0.26467953768288732
10
234.55891002671854
20
-55.531616262453326
10
218.49011571504002
20
-28.468383737521364
42
0.26467953768289604
10
215.91055148351782
20
-26.999999999987669
10
192.59000000000066
20
-26.999999999987658
42
-0.41421356237309453
10
189.59000000000063
20
-23.999999999987654
10
189.5900000000006
20
-3.9999999999892033
42
0.41421356237308449
10
186.59000000000066
20
-0.99999999998919786
10
-186.5900000000006
20
-0.99999999998920452
42
0.41421356237309426
10
-189.5900000000006
20
-3.9999999999892024
10
-189.5900000000006
20
-23.999999999987512
42
-0.41421356237309453
10
-192.5900000000006
20
-26.999999999987505
10
-215.91055148351779
20
-26.999999999987494
42
0.26467953768288033
10
-218.49011571503996
20
-28.468383737521158
10
-234.55891002671859
20
-55.531616262453134
42
-0.26467953768288871
10
-237.13847425824076
20
-56.999999999986819
10
-251
20
-56.999999999986812
42
0.41421356237309331
10
-254.00000000000003
20
-59.999999999986798
10
-254.00000000000003
20
-396.34314575050445
42
0.1989123673796663
10
-253.12132034355966
20
-398.46446609406416
10
-183.46446609407462
20
-468.12132034354903
42
0.19891236737964499
10
-181.34314575051494
20
-468.99999999998931
0
CIRCLE
5
101
100
AcDbEntity
8
0
100
AcDbCircle
10
25.030330085889716
20
-317.49999999998499
30
0
40
2.1499999999999986
210
-8.7492267652600641e-44
220
-6.3108872417680944e-30
230
1
0
CIRCLE
5
102
100
AcDbEntity
8
0
100
AcDbCircle
10
-64.969669914110284
20
-167.49999999998499
30
0
40
2.1500000000000075
210
-8.7492267652600591e-44
220
-1.5303393988500727e-73
230
1
0
CIRCLE
5
103
100
AcDbEntity
8
0
100
AcDbCircle
10
-132.46966991411026
20
-377.49999999998403
30
0
40
2.1499999999999986
210
-8.7492267652600641e-44
220
-6.3108872417680944e-30
230
1
0
CIRCLE
5
104
100
AcDbEntity
8
0
100
AcDbCircle
10
25.030330085889716
20
-167.49999999998499
30
0
40
2.1499999999999941
210
-8.7492267652600631e-44
220
-1.5303393988500743e-73
230
1
0
CIRCLE
5
105
100
AcDbEntity
8
0
100
AcDbCircle
10
-64.969669914110284
20
-317.49999999998499
30
0
40
2.1499999999999986
210
-8.7492267652600641e-44
220
-6.3108872417680944e-30
230
1
0
CIRCLE
5
106
100
AcDbEntity
8
0
100
AcDbCircle
10
-0.03033008588976225
20
-459.99999999998499
30
0
40
2.1500000000000301
210
-8.7492267652600611e-44
220
-1.5303393988500743e-73
230
1
0
CIRCLE
5
107
100
AcDbEntity
8
0
100
AcDbCircle
10
244.96966991410972
20
-234.99999999998499
30
0
40
2.1500000000000341
210
-2.4651903288244112e-32
220
6.3108872417680944e-30
230
1
0
CIRCLE
5
108
100
AcDbEntity
8
0
100
AcDbCircle
10
-244.96966991411026
20
-389.65409070459907
30
0
40
2.1499999999999986
210
-8.7492267652600641e-44
220
-6.3108872417680944e-30
230
1
0
CIRCLE
5
109
100
AcDbEntity
8
0
100
AcDbCircle
10
-182.46966991411028
20
-227.49999999998499
30
0
40
2.1499999999999986
210
-8.7492267652600641e-44
220
-6.3108872417680944e-30
230
1
0
LWPOLYLINE
5
110
100
AcDbEntity
8
0
100
AcDbPolyline
90
4
70
1
43
0.0
10
-15.030330085889755
20
-434.99999999998499
42
0.99999999999999989
10
-15.030330085889767
20
-444.99999999998499
10
14.969669914110241
20
-444.99999999998499
42
0.99999999999999989
10
14.969669914110245
20
-434.99999999998499
0
CIRCLE
5
111
100
AcDbEntity
8
0
100
AcDbCircle
10
-164.57434500509726
20
-459.99999999998499
30
0
40
2.1499999999999986
210
-8.7492267652600651e-44
220
-6.3108872417680944e-30
230
1
0
CIRCLE
5
112
100
AcDbEntity
8
0
100
AcDbCircle
10
-27.719669914109954
20
-401.49999999998505
30
0
40
2.2500000000000009
210
-8.7492267652600611e-44
220
-1.5303393988500736e-73
230
1
0
CIRCLE
5
113
100
AcDbEntity
8
0
100
AcDbCircle
10
27.780330085890146
20
-401.49999999998505
30
0
40
2.2500000000000009
210
-8.7492267652600611e-44
220
-1.5303393988500736e-73
230
1
0
CIRCLE
5
114
100
AcDbEntity
8
0
100
AcDbCircle
10
164.57434500509777
20
-459.99999999998494
30
-3.5527136788005009e-14
40
2.1499999999999986
210
-8.7492267652600641e-44
220
-6.3108872417680944e-30
230
1
0
CIRCLE
5
115
100
AcDbEntity
8
0
100
AcDbCircle
10
244.96966991410974
20
-389.65409070459896
30
0
40
2.1499999999999986
210
-8.7492267652600641e-44
220
-6.3108872417680944e-30
230
1
0
CIRCLE
5
116
100
AcDbEntity
8
0
100
AcDbCircle
10
-182.46966991411026
20
-377.49999999998403
30
0
40
2.1499999999999986
210
-8.7492267652600651e-44
220
-6.3108872417680944e-30
230
1
0
CIRCLE
5
117
100
AcDbEntity
8
0
100
AcDbCircle
10
-132.46966991411026
20
-227.49999999998499
30
3.5527136788005009e-14
40
2.1499999999999986
210
-8.7492267652600651e-44
220
-6.3108872417680944e-30
230
1
0
CIRCLE
5
118
100
AcDbEntity
8
0
100
AcDbCircle
10
-244.96966991411028
20
-234.99999999998499
30
0
40
2.1499999999999986
210
-8.7492267652600651e-44
220
-6.3108872417680944e-30
230
1
0
CIRCLE
5
119
100
AcDbEntity
8
0
100
AcDbCircle
10
164.57434500509774
20
-9.9999999999850324
30
0
40
2.1499999999999986
210
-8.7492267652600651e-44
220
-6.3108872417680944e-30
230
1
0
CIRCLE
5
120
100
AcDbEntity
8
0
100
AcDbCircle
10
-164.57434500509731
20
-9.999999999985052
30
0
40
2.1499999999999986
210
-8.7492267652600651e-44
220
-6.3108872417680944e-30
230
1
0
CIRCLE
5
121
100
AcDbEntity
8
0
100
AcDbCircle
10
-27.719669914109957
20
-352.49999999998499
30
0
40
2.2500000000000009
210
-8.7492267652600591e-44
220
-1.5303393988500733e-73
230
1
0
CIRCLE
5
122
100
AcDbEntity
8
0
100
AcDbCircle
10
-3.2129164973724984e-14
20
-9.9999999999850413
30
0
40
2.1499999999999999
210
-8.7492267652600621e-44
220
6.3108872417680944e-30
230
1
0
CIRCLE
5
123
100
AcDbEntity
8
0
100
AcDbCircle
10
244.96966991410972
20
-80.345909295370802
30
0
40
2.1499999999999986
210
-8.7492267652600651e-44
220
-6.3108872417680944e-30
230
1
0
CIRCLE
5
124
100
AcDbEntity
8
0
100
AcDbCircle
10
-127.46966991411027
20
-432.99999999998505
30
0
40
2.1000000000000085
210
-8.7492267652600601e-44
220
-6.3108872417680944e-30
230
1
0
LWPOLYLINE
5
125
100
AcDbEntity
8
0
100
AcDbPolyline
90
4
70
1
43
0.0
10
-202.96966991411026
20
-425.99999999998403
10
-182.96966991411017
20
-425.99999999998403
42
-0.99999999999999989
10
-182.96966991411026
20
-433.99999999998397
10
-202.96966991411034
20
-433.99999999998397
42
-0.99999999999999989
0
CIRCLE
5
126
100
AcDbEntity
8
0
100
AcDbCircle
10
55.030330085889723
20
-225.49999999998502
30
3.5527136788005009e-14
40
1.6000000000000103
210
-2.4651903288244112e-32
220
-4.311898624966122e-62
230
1
0
CIRCLE
5
127
100
AcDbEntity
8
0
100
AcDbCircle
10
104.03033008588977
20
-167.49999999998511
30
0
40
1.6000000000000014
210
-8.7492267652600591e-44
220
-1.5303393988500733e-73
230
1
0
CIRCLE
5
128
100
AcDbEntity
8
0
100
AcDbCircle
10
55.030330085889773
20
-167.49999999998499
30
0
40
1.6000000000000014
210
-8.7492267652600591e-44
220
-1.5303393988500733e-73
230
1
0
CIRCLE
5
129
100
AcDbEntity
8
0
100
AcDbCircle
10
104.03033008588974
20
-225.49999999998505
30
3.5527136788005009e-14
40
1.6000000000000014
210
-8.7492267652600591e-44
220
-1.5303393988500733e-73
230
1
0
CIRCLE
5
130
100
AcDbEntity
8
0
100
AcDbCircle
10
-244.96966991411028
20
-80.34590929537076
30
0
40
2.1499999999999986
210
-8.7492267652600651e-44
220
-6.3108872417680944e-30
230
1
0
CIRCLE
5
131
100
AcDbEntity
8
0
100
AcDbCircle
10
27.780330085890142
20
-352.49999999998499
30
0
40
2.2500000000000009
210
-8.7492267652600591e-44
220
-1.5303393988500733e-73
230
1
0
ENDSEC
0
SECTION
2
OBJECTS
0
DICTIONARY
5
C
100
AcDbDictionary
3
ACAD_GROUP
350
D
3
ACAD_MLINESTYLE
350
17
0
DICTIONARY
5
D
100
AcDbDictionary
0
DICTIONARY
5
1A
330
C
100
AcDbDictionary
0
DICTIONARY
5
17
100
AcDbDictionary
0
ENDSEC
0
EOF
